# xmcd CD database file
#
# Track frame offsets:
#	183
#	24470
#	59563
#	85055
#	112560
#	140753
#	169910
#	192463
#	219173
#	241433
#	263190
#	279223
#	295448
#
# Disc length: 4152 seconds
#
# Revision: 0
# Processed by: cddbd v1.5.2PL0 Copyright (c) Steve Scherf et al.
# Submitted via: CDex 1.70beta2
#
DISCID=bd10360d
DTITLE=Lee Morgan - Indestructible Lee
DYEAR=1960
DGENRE=Jazz
TTITLE0=Terrible "T"
TTITLE1=Mogie
TTITLE2=I'm a Fool to Want You
TTITLE3=Running Brook
TTITLE4=Off Spring
TTITLE5=Bess
TTITLE6=Expoobident
TTITLE7=Easy Living
TTITLE8=Triple Track
TTITLE9=Fire
TTITLE10=Just in Time
TTITLE11=The Hearing
TTITLE12=Lost and Found
EXTD=YEAR: 1960
EXTT0=
EXTT1=
EXTT2=
EXTT3=
EXTT4=
EXTT5=
EXTT6=
EXTT7=
EXTT8=
EXTT9=
EXTT10=
EXTT11=
EXTT12=
PLAYORDER=
